# xmcd
#
# Track frame offsets:
#	150
#	13865
#	34497
#	47347
#	64775
#	84650
#	102480
#	117682
#	134017
#	148680
#	164122
#	183155
#	199847
#
# Disc length: 2948 seconds
#
# Revision: 1
# Processed by: cddbd v1.4b42PL1 Copyright (c) Steve Scherf et al.
# Submitted via: audiograbber 1.80.04
#
DISCID=c80b820d
DTITLE=Back Porch Rockers - By The Water
DYEAR=1999
DGENRE=Blues
TTITLE0=Lightnin' Troubles
TTITLE1=Somebody Loan Me a Dime
TTITLE2=Howlin' for My Darlin'
TTITLE3=Tomorrow Night
TTITLE4=Cry to Me
TTITLE5=Everybody's Going for the Money
TTITLE6=Person-to-Person
TTITLE7=One-Room Country Shack
TTITLE8=By the Water
TTITLE9=Rock Me Mama
TTITLE10=Mississippi Kid
TTITLE11=Mellow Chicken Swing
TTITLE12=Mother Earth
EXTD=Dave Ray\nTony Glover\nCamile Baudoin\nReggie Scanlan
EXTT0=
EXTT1=
EXTT2=
EXTT3=
EXTT4=
EXTT5=
EXTT6=
EXTT7=
EXTT8=
EXTT9=
EXTT10=
EXTT11=
EXTT12=
PLAYORDER=
